<svg width="907" height="643" viewBox="0 0 907 643" fill="none" xmlns="http://www.w3.org/2000/svg">
<line x1="212.327" y1="1.08795" x2="4.32662" y2="637.088" stroke="#E1CC01" stroke-width="7"/>
<line x1="0.980685" y1="639.5" x2="906.981" y2="634.5" stroke="#E1CC01" stroke-width="7"/>
<line x1="903.688" y1="633.132" x2="687.688" y2="1.13189" stroke="#E1CC01" stroke-width="7"/>
<line x1="209" y1="3.5" x2="691" y2="3.5" stroke="#E1CC01" stroke-width="7"/>
<line x1="142.983" y1="219.5" x2="760.983" y2="216.5" stroke="#E1CC01" stroke-width="7"/>
<path d="M457.5 219.5C457.5 220.41 456.984 221.576 455.462 222.654C453.948 223.727 451.675 224.5 449 224.5C446.325 224.5 444.052 223.727 442.538 222.654C441.016 221.576 440.5 220.41 440.5 219.5C440.5 218.59 441.016 217.424 442.538 216.346C444.052 215.273 446.325 214.5 449 214.5C451.675 214.5 453.948 215.273 455.462 216.346C456.984 217.424 457.5 218.59 457.5 219.5Z" stroke="#E1CC01" stroke-width="7"/>
<path d="M553.5 225C553.5 240.652 542.702 255.452 523.885 266.532C505.148 277.564 479.033 284.5 450 284.5C420.967 284.5 394.852 277.564 376.115 266.532C357.298 255.452 346.5 240.652 346.5 225C346.5 209.348 357.298 194.548 376.115 183.468C394.852 172.436 420.967 165.5 450 165.5C479.033 165.5 505.148 172.436 523.885 183.468C542.702 194.548 553.5 209.348 553.5 225Z" stroke="#E1CC01" stroke-width="7"/>
<mask id="path-8-inside-1_1_72" fill="white">
<path d="M566 500.5C566 492.03 563.077 483.642 557.398 475.817C551.72 467.991 543.396 460.881 532.903 454.892C522.41 448.902 509.953 444.151 496.243 440.91C482.533 437.668 467.839 436 453 436C438.161 436 423.467 437.668 409.757 440.91C396.047 444.151 383.59 448.902 373.097 454.892C362.604 460.881 354.28 467.991 348.602 475.817C342.923 483.642 340 492.03 340 500.5L453 500.5H566Z"/>
</mask>
<path d="M566 500.5C566 492.03 563.077 483.642 557.398 475.817C551.72 467.991 543.396 460.881 532.903 454.892C522.41 448.902 509.953 444.151 496.243 440.91C482.533 437.668 467.839 436 453 436C438.161 436 423.467 437.668 409.757 440.91C396.047 444.151 383.59 448.902 373.097 454.892C362.604 460.881 354.28 467.991 348.602 475.817C342.923 483.642 340 492.03 340 500.5L453 500.5H566Z" stroke="#E1CC01" stroke-width="14" mask="url(#path-8-inside-1_1_72)"/>
<line x1="242.526" y1="637.578" x2="259.526" y2="497.578" stroke="#E1CC01" stroke-width="7"/>
<line x1="256" y1="499.5" x2="635" y2="499.5" stroke="#E1CC01" stroke-width="5"/>
<line x1="631.453" y1="498.429" x2="653.453" y2="631.429" stroke="#E1CC01" stroke-width="7"/>
<line x1="318.524" y1="631.594" x2="327.524" y2="554.594" stroke="#E1CC01" stroke-width="7"/>
<line x1="324" y1="553.5" x2="567" y2="553.5" stroke="#E1CC01" stroke-width="7"/>
<line x1="563.483" y1="554.656" x2="571.483" y2="635.656" stroke="#E1CC01" stroke-width="7"/>
<line x1="332.492" y1="6.24359" x2="329.492" y2="49.2436" stroke="#E1CC01" stroke-width="7"/>
<line x1="556.473" y1="6.56588" x2="561.473" y2="46.5659" stroke="#E1CC01" stroke-width="7"/>
<line x1="326.979" y1="47.5001" x2="564.979" y2="45.4917" stroke="#E1CC01" stroke-width="5"/>
<mask id="path-18-inside-2_1_72" fill="white">
<path d="M516.996 43.7834C517.042 48.4451 515.213 53.0797 511.612 57.4226C508.011 61.7654 502.71 65.7315 496.011 69.0944C489.311 72.4572 481.345 75.151 472.567 77.0219C463.789 78.8928 454.371 79.9042 444.851 79.9983C435.33 80.0924 425.894 79.2674 417.081 77.5703C408.268 75.8733 400.25 73.3375 393.485 70.1078C386.721 66.878 381.342 63.0175 377.656 58.7466C373.97 54.4758 372.05 49.8783 372.003 45.2166L444.5 44.5L516.996 43.7834Z"/>
</mask>
<path d="M516.996 43.7834C517.042 48.4451 515.213 53.0797 511.612 57.4226C508.011 61.7654 502.71 65.7315 496.011 69.0944C489.311 72.4572 481.345 75.151 472.567 77.0219C463.789 78.8928 454.371 79.9042 444.851 79.9983C435.33 80.0924 425.894 79.2674 417.081 77.5703C408.268 75.8733 400.25 73.3375 393.485 70.1078C386.721 66.878 381.342 63.0175 377.656 58.7466C373.97 54.4758 372.05 49.8783 372.003 45.2166L444.5 44.5L516.996 43.7834Z" stroke="#E1CC01" stroke-width="14" mask="url(#path-18-inside-2_1_72)"/>
<line x1="374" y1="3.5" x2="375" y2="3.5" stroke="#E1CC01" stroke-width="7"/>
<line x1="375.5" y1="7" x2="375.5" y2="28" stroke="#E1CC01" stroke-width="7"/>
<path d="M372 26L516 26" stroke="#E1CC01" stroke-width="7"/>
<path d="M512.461 25.5547L512.5 7.00001" stroke="#E1CC01" stroke-width="7"/>
</svg>
